<?xml version="1.0" encoding="utf-8"?>
<!-- Generator: Adobe Illustrator 16.0.0, SVG Export Plug-In . SVG Version: 6.00 Build 0)  -->
<!DOCTYPE svg PUBLIC "-//W3C//DTD SVG 1.1//EN" "http://www.w3.org/Graphics/SVG/1.1/DTD/svg11.dtd">
<svg version="1.1" id="Layer_1" xmlns="http://www.w3.org/2000/svg" xmlns:xlink="http://www.w3.org/1999/xlink" x="0px" y="0px"
	 width="100%" height="100%" viewBox="0 0 529.683 434.264" enable-background="new 0 0 529.683 434.264"
	 xml:space="preserve">
<g id="code_x5F_editor">
	<path fill="none" stroke="#2a55c8" stroke-width="7" stroke-miterlimit="10" d="M526.183,405.318
		c0,14.052-11.393,25.445-25.445,25.445H28.945c-14.053,0-25.445-11.394-25.445-25.445V28.945C3.5,14.891,14.892,3.5,28.945,3.5
		h471.792c14.053,0,25.445,11.391,25.445,25.445V405.318z"/>
	<circle fill="#2a55c8" stroke="#2a55c8" stroke-width="2" stroke-miterlimit="10" cx="34.286" cy="34.43" r="6.371"/>
	<circle fill="#2a55c8" stroke="#2a55c8" stroke-width="2" stroke-miterlimit="10" cx="56.628" cy="34.43" r="6.371"/>
	<circle fill="#2a55c8" stroke="#2a55c8" stroke-width="2" stroke-miterlimit="10" cx="78.969" cy="34.43" r="6.371"/>
	<line stroke="#2a55c8" stroke-width="7" stroke-miterlimit="10" x1="3.5" y1="61.247" x2="526.183" y2="61.247"/>
	
		<line fill="none" stroke="#2a55c8" stroke-width="9" stroke-linecap="round" stroke-miterlimit="10" x1="28.04" y1="112.351" x2="162.539" y2="112.351"/>
	
		<line fill="none" stroke="#7ba0ff" stroke-width="9" stroke-linecap="round" stroke-miterlimit="10" x1="28.04" y1="145.708" x2="108.739" y2="145.708"/>
	
		<line fill="none" stroke="#2a55c8" stroke-width="9" stroke-linecap="round" stroke-miterlimit="10" x1="28.04" y1="171.664" x2="176.697" y2="171.664"/>
	
		<line fill="none" stroke="#2a55c8" stroke-width="9" stroke-linecap="round" stroke-miterlimit="10" x1="28.04" y1="203.837" x2="79.479" y2="203.837"/>
	
		<line fill="none" stroke="#2a55c8" stroke-width="9" stroke-linecap="round" stroke-miterlimit="10" x1="28.04" y1="233.176" x2="136.583" y2="233.176"/>
	
		<line fill="none" stroke="#7ba0ff" stroke-width="9" stroke-linecap="round" stroke-miterlimit="10" x1="28.04" y1="263.069" x2="157.82" y2="263.069"/>
	
		<line fill="none" stroke="#2a55c8" stroke-width="9" stroke-linecap="round" stroke-miterlimit="10" x1="182.055" y1="261.572" x2="258.271" y2="261.572"/>
	
		<line fill="none" stroke="#2a55c8" stroke-width="9" stroke-linecap="round" stroke-miterlimit="10" x1="28.04" y1="290.521" x2="119.593" y2="290.521"/>
	
		<line fill="none" stroke="#7ba0ff" stroke-width="9" stroke-linecap="round" stroke-miterlimit="10" x1="143.476" y1="290.521" x2="210.607" y2="290.521"/>
	
		<line fill="none" stroke="#2a55c8" stroke-width="9" stroke-linecap="round" stroke-miterlimit="10" x1="28.04" y1="319.31" x2="157.82" y2="319.31"/>
	
		<line fill="none" stroke="#7ba0ff" stroke-width="9" stroke-linecap="round" stroke-miterlimit="10" x1="28.04" y1="345.817" x2="123.841" y2="345.817"/>
	
		<line fill="none" stroke="#2a55c8" stroke-width="9" stroke-linecap="round" stroke-miterlimit="10" x1="158.615" y1="344.32" x2="242.145" y2="344.32"/>
	
		<line fill="none" stroke="#2a55c8" stroke-width="9" stroke-linecap="round" stroke-miterlimit="10" x1="28.04" y1="369.804" x2="136.583" y2="369.804"/>
	
		<line fill="none" stroke="#7ba0ff" stroke-width="9" stroke-linecap="round" stroke-miterlimit="10" x1="104.269" y1="205.334" x2="185.675" y2="205.334"/>
	
		<line fill="none" stroke="#2a55c8" stroke-width="9" stroke-linecap="round" stroke-miterlimit="10" x1="197.933" y1="171.664" x2="286.654" y2="171.664"/>
</g>
</svg>
